<svg version="1.1" id="Capa_1" xmlns="http://www.w3.org/2000/svg" x="0" y="0" viewBox="0 0 512 512" xml:space="preserve"><path d="M256 0C114.67 0 0 114.6 0 255.96 0 397.4 114.67 512 256 512s256-114.6 256-256.04C512 114.6 397.33 0 256 0zm0 475.96c-121.28 0-219.94-98.68-219.94-219.97 0-121.3 98.66-219.98 219.94-219.98 121.27 0 219.94 98.68 219.94 219.98 0 121.29-98.67 219.97-219.94 219.97z" fill="#ccc"/><g fill="#8c8c8c"><path d="M256 0c-6.063 0-12.072.226-18.03.641C370.894 9.897 475.94 120.664 475.94 255.96c0 135.373-105.047 246.143-237.97 255.399 5.958.415 11.967.641 18.03.641 141.33 0 256-114.6 256-256.04C512 114.6 397.33 0 256 0z"/><path d="M449.41 364.62l-.031.061-.01.02a.611.611 0 01-.336.255h-.01l-2.241-.856-188.668-71.446a6.003 6.003 0 00-4.249 0L65.226 364.08l-2.282.866a.637.637 0 01-.316-.245l-.01-.02a.094.094 0 01-.031-.071.697.697 0 01-.041-.52l1.651-1.498 146.777-132.51a6.002 6.002 0 001.837-3.155L254.878 37.21l.092-.397.265-1.233c.122-.224.285-.397.469-.479a.505.505 0 01.275-.071h.02c.082 0 .173.02.255.061.194.092.367.275.489.53.01 0 .01.01.01.02l.255 1.151.092.428 42.057 189.707a6.002 6.002 0 001.837 3.155l146.766 132.5c.01-.01.01 0 .02.01l1.681 1.518v.01c.041.184.031.357-.051.5z"/></g><path d="M255.989 35.031v210.2L65.501 362.817l-2.914 1.793a.697.697 0 01-.041-.52l1.651-1.498 146.777-132.51a6.002 6.002 0 001.837-3.155L254.878 37.21l.092-.397.265-1.233c.122-.224.285-.397.469-.479a.505.505 0 01.275-.071l.01.001z" fill="#e3e3e3"/><path d="M449.41 364.62l-2.914-1.803-190.497-117.585v-210.2c.082 0 .173.02.255.061.194.092.367.275.489.53.01 0 .01.01.01.02 0 0 .01 0 .01.01l.244 1.1.102.458 42.067 189.717a6.005 6.005 0 001.837 3.155l146.766 132.51 1.681 1.508c-.01.01 0 .01 0 .01v.01c.042.183.032.356-.05.499z" fill="#ccc"/></svg>